<svg xmlns="http://www.w3.org/2000/svg" width="24" height="24" viewBox="0 0 24 24">
    <g fill="#6986FF" fill-rule="evenodd">
        <path d="M12 6.171c-.566 0-1.029-.462-1.029-1.028V1.029C10.971.463 11.434 0 12 0c.566 0 1.029.463 1.029 1.029v4.114c0 .566-.463 1.028-1.029 1.028" opacity=".65"/>
        <path d="M14.914 6.952c-.49-.283-.659-.915-.376-1.405l2.057-3.563c.283-.49.915-.659 1.405-.376.49.283.66.915.376 1.405L16.32 6.576c-.283.49-.915.66-1.405.376" opacity=".75"/>
        <path d="M17.048 9.086c-.283-.49-.114-1.122.376-1.405l3.563-2.057c.49-.283 1.122-.114 1.405.376.283.49.114 1.122-.376 1.405l-3.563 2.057c-.49.283-1.122.114-1.405-.376" opacity=".85"/>
        <path d="M17.829 12c0-.566.462-1.029 1.028-1.029h4.114c.566 0 1.029.463 1.029 1.029 0 .566-.463 1.029-1.029 1.029h-4.114c-.566 0-1.028-.463-1.028-1.029" opacity=".9"/>
        <path d="M17.048 14.914c.283-.49.915-.659 1.405-.376l3.563 2.057c.49.283.659.915.376 1.405-.283.49-.915.66-1.405.376l-3.563-2.057c-.49-.283-.66-.915-.376-1.405" opacity=".2"/>
        <path d="M14.914 17.048c.49-.283 1.122-.114 1.405.376l2.057 3.563c.283.49.114 1.122-.376 1.405-.49.283-1.122.114-1.405-.376l-2.057-3.563c-.283-.49-.114-1.122.376-1.405" opacity=".25"/>
        <path d="M12 17.829c.566 0 1.029.462 1.029 1.028v4.114c0 .566-.463 1.029-1.029 1.029-.566 0-1.029-.463-1.029-1.029v-4.114c0-.566.463-1.028 1.029-1.028" opacity=".3"/>
        <path d="M9.086 17.048c.49.283.659.915.376 1.405l-2.057 3.563c-.283.49-.915.659-1.405.376-.49-.283-.66-.915-.376-1.405l2.057-3.563c.283-.49.915-.66 1.405-.376" opacity=".35"/>
        <path d="M6.952 14.914c.283.49.114 1.122-.376 1.405l-3.563 2.057c-.49.283-1.122.114-1.405-.376-.283-.49-.114-1.122.376-1.405l3.563-2.057c.49-.283 1.122-.114 1.405.376" opacity=".4"/>
        <path d="M6.171 12c0 .566-.462 1.029-1.028 1.029H1.029C.463 13.029 0 12.566 0 12c0-.566.463-1.029 1.029-1.029h4.114c.566 0 1.028.463 1.028 1.029" opacity=".45"/>
        <path d="M6.952 9.086c-.283.49-.915.659-1.405.376L1.984 7.405c-.49-.283-.659-.915-.376-1.405.283-.49.915-.66 1.405-.376L6.576 7.68c.49.283.66.915.376 1.405" opacity=".5"/>
        <path d="M9.086 6.952c-.49.283-1.122.114-1.405-.376L5.624 3.013C5.34 2.523 5.51 1.89 6 1.608c.49-.283 1.122-.114 1.405.376l2.057 3.563c.283.49.114 1.122-.376 1.405" opacity=".55"/>
    </g>
</svg>
